<?xml version="1.0" standalone="no"?>
<!DOCTYPE svg PUBLIC "-//W3C//DTD SVG 20010904//EN"
 "http://www.w3.org/TR/2001/REC-SVG-20010904/DTD/svg10.dtd">
<svg version="1.0" xmlns="http://www.w3.org/2000/svg"
 width="300.000000pt" height="49.000000pt" viewBox="0 0 300.000000 49.000000"
 preserveAspectRatio="xMidYMid meet">
<metadata>
Created by potrace 1.10, written by Peter Selinger 2001-2011
</metadata>
<g transform="translate(0.000000,49.000000) scale(0.100000,-0.100000)"
fill="#000000" stroke="none">
<path d="M247 479 c-20 -5 -71 -27 -113 -49 -42 -22 -90 -40 -107 -41 -31 0
-31 0 -7 -10 13 -6 41 -7 62 -4 l38 7 0 -131 c0 -76 -4 -132 -10 -136 -19 -12
-10 -20 25 -20 35 0 44 8 25 20 -6 4 -10 63 -10 145 l0 138 43 25 c87 51 157
54 203 8 22 -22 26 -23 23 -7 -9 45 -97 73 -172 55z"/>
<path d="M954 458 l-19 -22 25 17 c13 9 35 17 48 17 29 0 68 -41 82 -88 7 -21
18 -50 25 -67 8 -16 29 -73 48 -126 20 -53 43 -111 51 -128 19 -36 63 -62 103
-60 27 2 27 2 3 6 -51 10 -56 19 -146 263 -67 184 -87 210 -154 210 -36 0 -51
-5 -66 -22z"/>
<path d="M2356 389 c-89 -26 -135 -146 -86 -227 78 -128 270 -73 270 79 0 95
-97 174 -184 148z m88 -30 c83 -65 82 -211 -2 -246 -66 -28 -129 13 -152 98
-32 118 69 215 154 148z"/>
<path d="M228 378 c15 -15 17 -254 2 -263 -20 -12 -10 -20 25 -20 28 0 34 3
28 15 -4 8 -8 64 -10 124 -2 85 1 115 12 133 15 23 15 23 -27 23 -33 0 -39 -3
-30 -12z"/>
<path d="M394 374 c13 -13 15 -37 13 -132 -2 -64 -6 -124 -10 -132 -6 -12 0
-15 27 -15 29 0 33 3 25 17 -14 26 -11 252 3 266 9 9 3 12 -31 12 -39 0 -41
-1 -27 -16z"/>
<path d="M504 374 c13 -12 16 -40 16 -134 0 -68 -4 -121 -10 -125 -5 -3 -10
-9 -10 -13 0 -9 95 -14 146 -7 38 5 43 9 59 51 19 50 15 72 -5 25 -18 -45 -40
-59 -95 -62 l-50 -3 -3 138 -3 139 53 -7 c53 -7 88 -31 88 -62 0 -8 4 -14 9
-14 6 0 3 20 -6 45 l-15 45 -95 0 c-86 0 -93 -1 -79 -16z"/>
<path d="M882 380 c9 -6 40 -71 69 -145 28 -74 57 -135 63 -135 12 0 92 207
84 216 -3 3 -18 -30 -33 -73 -34 -95 -40 -102 -53 -66 -5 15 -24 65 -41 111
l-31 83 23 9 c17 7 8 9 -38 9 -44 0 -55 -2 -43 -9z"/>
<path d="M1284 377 c16 -12 15 -19 -19 -112 -19 -54 -34 -103 -32 -108 3 -11
67 151 67 170 0 6 9 22 21 37 l20 26 -37 0 c-33 0 -36 -2 -20 -13z"/>
<path d="M1387 377 c-2 -6 -24 -66 -47 -132 -23 -66 -47 -124 -51 -130 -15
-15 -10 -25 12 -25 15 0 19 4 15 16 -4 9 -1 32 6 50 12 33 14 34 63 34 51 0
52 -1 63 -37 6 -20 9 -40 7 -44 -3 -4 9 -9 25 -11 31 -5 37 1 21 17 -4 6 -28
68 -51 138 -43 127 -54 148 -63 124z m19 -99 c9 -29 19 -59 22 -65 3 -9 -9
-13 -42 -13 -25 0 -46 1 -46 3 0 2 7 26 16 53 9 27 17 55 20 62 6 21 12 14 30
-40z"/>
<path d="M1545 366 c13 -20 16 -46 13 -133 -2 -59 -7 -115 -11 -123 -6 -12 0
-15 27 -15 29 0 33 3 25 17 -5 9 -9 39 -9 67 0 46 2 51 23 51 34 0 45 -12 56
-59 11 -49 24 -65 61 -76 l25 -7 -21 20 c-12 11 -26 41 -33 65 -6 25 -15 48
-20 52 -5 3 1 16 15 30 26 26 30 51 13 89 -14 31 -56 46 -126 46 l-53 0 15
-24z m128 -19 c13 -15 17 -30 13 -51 -9 -42 -24 -56 -62 -56 l-34 0 0 70 0 70
33 -6 c17 -4 40 -16 50 -27z"/>
<path d="M1778 378 c15 -15 17 -259 3 -273 -14 -15 76 -17 127 -3 50 13 101
65 104 106 4 89 -17 136 -75 163 -49 22 -180 28 -159 7z m149 -20 c47 -23 69
-128 39 -187 -21 -40 -41 -53 -92 -61 l-44 -7 0 139 0 139 38 -6 c20 -4 47
-11 59 -17z"/>
<path d="M2039 377 c9 -12 12 -50 9 -149 l-3 -133 32 0 c20 0 29 4 23 10 -6 5
-10 35 -10 67 0 54 1 58 24 58 29 0 41 -14 55 -66 12 -46 23 -58 61 -68 l25
-7 -22 18 c-12 10 -25 32 -29 48 -3 17 -13 40 -21 53 -13 21 -12 25 6 40 34
28 37 74 8 107 -22 26 -32 30 -98 33 -66 4 -72 3 -60 -11z m129 -20 c15 -12
16 -71 2 -98 -8 -13 -21 -19 -45 -19 l-35 0 0 70 0 70 33 -7 c17 -3 38 -10 45
-16z"/>
<path d="M2569 376 c8 -10 11 -55 9 -145 l-3 -130 47 -6 c36 -5 57 -2 85 12
34 16 38 23 41 60 3 38 0 44 -28 62 -24 14 -28 20 -15 24 24 10 36 52 24 85
-13 37 -46 52 -116 52 -47 0 -54 -2 -44 -14z m118 -18 c16 -13 17 -62 3 -89
-6 -11 -22 -19 -38 -20 -25 -1 -24 -2 8 -11 41 -11 60 -32 60 -67 0 -39 -13
-52 -59 -61 l-41 -7 0 139 0 140 27 -7 c16 -4 34 -11 40 -17z"/>
<path d="M2779 376 c8 -10 11 -55 9 -145 l-3 -130 54 -7 c30 -4 70 -3 89 2 29
8 38 17 53 57 10 26 15 47 10 47 -5 0 -12 -10 -15 -22 -12 -46 -34 -62 -91
-68 l-55 -6 -2 50 c-2 68 3 220 7 225 2 2 25 0 50 -4 39 -5 50 -12 67 -41 27
-45 33 -38 12 15 l-16 41 -90 0 c-77 0 -89 -2 -79 -14z"/>
<path d="M627 270 c-3 -14 -14 -20 -32 -20 -15 0 -24 -4 -20 -10 3 -5 15 -10
25 -10 10 0 24 -8 29 -17 8 -14 10 -8 11 30 0 50 -4 60 -13 27z"/>
<path d="M2900 265 c0 -9 -10 -15 -26 -15 -14 0 -23 -4 -19 -10 3 -5 15 -10
26 -10 10 0 19 -7 19 -15 0 -8 3 -15 8 -15 4 0 7 18 7 40 0 22 -3 40 -7 40 -5
0 -8 -7 -8 -15z"/>
<path d="M290 240 c0 -5 23 -10 50 -10 28 0 50 5 50 10 0 6 -22 10 -50 10 -27
0 -50 -4 -50 -10z"/>
</g>
</svg>
