<?xml version="1.0" standalone="no"?>
<!DOCTYPE svg PUBLIC "-//W3C//DTD SVG 20010904//EN"
 "http://www.w3.org/TR/2001/REC-SVG-20010904/DTD/svg10.dtd">
<svg version="1.0" xmlns="http://www.w3.org/2000/svg"
 width="300.000000pt" height="246.000000pt" viewBox="0 0 300.000000 246.000000"
 preserveAspectRatio="xMidYMid meet">
<metadata>
Created by potrace 1.10, written by Peter Selinger 2001-2011
</metadata>
<g transform="translate(0.000000,246.000000) scale(0.100000,-0.100000)"
fill="#000000" stroke="none">
<path d="M977 2199 l-26 -19 -3 -343 c-2 -188 -3 -428 -3 -534 0 -189 0 -192
24 -217 l25 -26 504 0 505 1 34 35 33 35 -2 397 -3 397 -5 -355 -5 -355 -3
437 c-1 294 -6 445 -13 461 -6 14 -22 30 -36 36 -16 8 -173 11 -504 11 -411 0
-484 -2 -509 -15 -25 -13 -30 -13 -30 -2 0 8 9 22 21 33 20 18 45 19 502 21
264 2 494 -1 511 -5 21 -5 36 -19 47 -40 13 -25 18 -29 23 -17 9 24 -20 72
-46 78 -13 4 -247 6 -520 6 -480 0 -497 0 -521 -20z m1024 -86 c5 -5 -62 -6
-147 -5 -106 3 -159 0 -168 -8 -10 -7 -16 -8 -21 0 -9 15 -317 14 -333 -2 -9
-9 -12 -9 -12 1 0 10 -37 12 -165 9 -90 -2 -161 0 -157 4 15 15 988 15 1003 1z
m-701 -257 l0 -234 -25 11 c-23 11 -23 13 -8 24 19 15 11 28 -12 20 -21 -9
-22 -129 0 -147 12 -10 18 -10 30 0 13 11 15 -10 15 -183 0 -107 -3 -202 -6
-211 -5 -14 -28 -16 -145 -16 l-139 0 0 478 c0 263 3 482 7 485 3 4 69 7 145
7 l138 0 0 -234z m344 -239 c0 -259 -2 -478 -2 -484 -2 -10 -37 -13 -142 -13
-77 0 -140 3 -140 8 0 4 -1 100 -3 214 -2 197 -1 206 16 191 28 -26 38 -4 35
73 -3 60 -6 69 -23 73 -19 3 -19 2 -3 -15 16 -18 15 -20 -5 -29 l-22 -11 0
233 0 233 145 0 145 0 -1 -473z m341 420 l0 -48 -143 -2 -142 -2 0 53 0 53
143 -3 142 -3 0 -48z m-141 -87 c112 0 138 3 142 15 4 8 12 15 19 15 16 0 25
-34 14 -51 -6 -10 -9 -11 -9 -1 0 9 -41 12 -169 12 -168 0 -169 0 -164 21 6
20 7 20 18 5 10 -13 33 -16 149 -16z m146 -85 l0 -55 -145 0 -145 0 0 55 0 55
145 0 145 0 0 -55z m34 -63 c3 -29 0 -52 -5 -52 -5 0 -9 5 -9 10 0 6 -9 10
-20 10 -11 0 -20 4 -20 10 0 5 9 14 20 20 12 7 20 21 20 37 0 44 10 20 14 -35z
m-259 -22 l50 -6 -68 -5 c-38 -2 -70 -2 -72 -1 -11 11 9 32 24 26 9 -4 39 -10
66 -14z m225 -85 l0 -55 -65 0 c-51 0 -65 -3 -65 -15 0 -8 -7 -15 -15 -15 -8
0 -15 7 -15 15 0 12 -14 15 -65 15 l-65 0 0 55 0 55 145 0 145 0 0 -55z m40
-288 c0 -259 -1 -285 -17 -299 -13 -11 -52 -17 -150 -22 -72 -3 -138 -9 -147
-12 -10 -4 -16 -1 -16 10 0 13 21 16 152 18 l153 3 7 40 c11 63 0 102 -31 113
l-26 10 26 7 c21 5 28 15 33 43 11 70 7 89 -21 107 -27 18 -27 18 -6 28 40 18
44 107 6 143 -27 25 -27 25 -5 31 14 3 22 13 22 27 0 20 7 36 16 36 2 0 3
-127 4 -283z m-692 173 c-2 -28 -7 -51 -13 -53 -12 -2 -19 76 -10 112 6 23 8
24 16 8 6 -9 9 -40 7 -67z m370 44 c21 -6 21 -7 5 -20 -26 -19 -43 -17 -43 6
0 22 3 23 38 14z m-318 -39 c0 -13 -4 -27 -10 -30 -6 -4 -10 8 -10 30 0 22 4
34 10 30 6 -3 10 -17 10 -30z m600 -60 l0 -55 -144 0 -144 0 2 55 1 55 143 0
142 0 0 -55z m-275 -96 c-4 -5 -17 -9 -31 -9 -20 0 -23 3 -16 16 5 9 7 26 4
38 -4 18 -2 17 22 -7 14 -16 24 -33 21 -38z m170 6 c0 -12 -40 -19 -61 -11 -9
3 -12 11 -9 16 8 14 70 9 70 -5z m-60 -52 c0 -21 5 -28 19 -28 27 0 46 33 26
45 -10 7 6 10 53 10 l67 0 0 -60 0 -60 -143 0 -143 0 1 60 0 60 60 0 c60 0 61
0 60 -27z m-486 -210 l1 -73 154 0 c129 0 155 -2 160 -15 5 -14 -16 -16 -171
-15 l-176 2 7 75 c3 42 6 90 7 107 1 64 18 -8 18 -81z m565 98 c11 -1 16 -4
12 -8 -4 -4 -54 -7 -111 -8 -57 0 -107 -3 -110 -7 -4 -4 -8 -43 -9 -88 0 -44
-5 -81 -11 -82 -15 -4 -18 27 -10 117 l7 82 106 -3 c59 -2 116 -3 126 -3z
m-915 -112 c1 -33 6 -49 17 -53 9 -3 78 -6 155 -6 117 0 139 -2 139 -15 0 -17
-24 -18 -193 -6 -131 9 -136 14 -135 116 2 77 15 48 17 -36z m838 52 c-2 -20
3 -27 21 -29 25 -4 40 21 24 41 -8 10 3 13 54 15 l64 3 0 -60 0 -61 -142 0
-143 0 3 58 4 59 58 0 c56 0 58 -1 57 -26z"/>
<path d="M1093 1133 c37 -2 96 -2 130 0 34 2 4 3 -68 3 -71 0 -99 -1 -62 -3z"/>
<path d="M1433 1133 c37 -2 97 -2 135 0 37 2 6 3 -68 3 -74 0 -105 -1 -67 -3z"/>
<path d="M1730 2030 c8 -5 60 -10 115 -10 55 0 107 5 115 10 10 7 -27 10 -115
10 -88 0 -125 -3 -115 -10z"/>
<path d="M1735 1850 c11 -5 61 -9 110 -9 50 0 99 4 110 9 13 5 -29 9 -110 9
-81 0 -123 -4 -110 -9z"/>
<path d="M1755 1670 c40 -8 204 -4 213 5 3 3 -53 4 -124 4 -94 -1 -118 -3 -89
-9z"/>
<path d="M1783 1493 c37 -2 96 -2 130 0 34 2 4 3 -68 3 -71 0 -99 -1 -62 -3z"/>
<path d="M1783 1313 c37 -2 96 -2 130 0 34 2 4 3 -68 3 -71 0 -99 -1 -62 -3z"/>
<path d="M1788 1133 c34 -2 88 -2 120 0 31 2 3 3 -63 3 -66 0 -92 -1 -57 -3z"/>
<path d="M705 1330 c-3 -5 -15 -10 -25 -10 -11 0 -39 -10 -63 -21 -32 -16 -43
-27 -40 -39 3 -9 -2 -24 -11 -32 -14 -14 -13 -20 7 -62 13 -26 26 -44 30 -40
4 4 7 -7 7 -25 0 -19 4 -30 10 -26 6 3 10 2 10 -4 0 -6 11 -22 26 -36 18 -19
32 -24 53 -20 39 7 121 44 121 55 0 5 7 7 15 4 9 -4 19 3 26 18 22 49 -62 220
-111 226 -14 1 -26 7 -28 12 -5 13 -19 13 -27 0z m88 -50 c10 -10 9 -12 -5 -7
-10 3 -20 2 -22 -2 -3 -5 -17 -8 -30 -8 -37 0 -102 -35 -119 -63 -15 -25 -16
-28 -18 -52 0 -7 -5 2 -10 19 -12 42 9 86 54 114 25 15 44 19 85 16 29 -2 58
-10 65 -17z m-25 -70 c13 -11 26 -35 29 -57 3 -21 10 -44 16 -50 6 -9 6 -13
-2 -14 -16 -2 -23 -4 -60 -21 -59 -27 -110 2 -115 64 -4 44 10 71 34 63 10 -3
21 -1 25 4 3 7 0 8 -9 5 -9 -3 -16 -1 -16 4 0 6 15 13 33 15 17 2 34 4 37 5 3
1 15 -7 28 -18z"/>
<path d="M670 1139 c-13 -10 -13 -10 1 -6 9 3 16 -1 16 -9 0 -8 -6 -13 -12
-10 -6 2 -12 -2 -12 -9 0 -17 24 -6 49 22 16 18 16 19 -5 21 -12 1 -29 -3 -37
-9z"/>
<path d="M742 1127 l-22 -23 37 4 c32 4 35 6 19 17 -13 10 -14 14 -4 18 7 3 8
6 2 6 -6 1 -20 -9 -32 -22z"/>
<path d="M2234 1311 c-28 -12 -46 -38 -18 -27 37 16 104 18 134 6 68 -28 89
-99 50 -175 -24 -47 -20 -57 8 -18 33 47 47 107 33 141 -23 55 -55 76 -124 79
-34 2 -72 -1 -83 -6z"/>
<path d="M2168 1253 c-17 -20 -38 -57 -38 -69 0 -3 8 0 17 7 15 13 16 11 10
-11 -4 -14 -7 -28 -7 -32 0 -4 -7 -5 -15 -2 -12 5 -15 -2 -15 -29 0 -45 25
-72 63 -67 1 0 28 -8 61 -19 65 -23 84 -18 113 25 22 35 33 112 20 142 -24 53
-175 93 -209 55z m102 -23 c16 0 41 -10 55 -23 25 -21 26 -23 13 -70 -9 -36
-16 -46 -28 -42 -8 4 -34 12 -58 18 -43 11 -43 12 -37 47 5 33 4 34 -10 16
-21 -28 -19 -47 10 -80 22 -25 25 -26 26 -10 1 17 2 17 6 2 3 -13 9 -16 21 -9
9 5 26 5 37 1 19 -7 18 -8 -6 -20 -18 -8 -42 -9 -80 -3 -46 7 -55 12 -63 35
-8 23 -6 32 13 52 13 14 21 31 18 39 -8 21 22 60 40 53 8 -3 28 -6 43 -6z"/>
<path d="M2235 1168 c0 -36 21 -44 30 -11 7 28 20 22 20 -10 0 -29 20 -32 33
-3 12 27 7 31 -53 46 -28 6 -30 5 -30 -22z"/>
<path d="M2039 1011 c-24 -23 -36 -38 -26 -35 9 3 17 10 17 15 0 4 9 13 20 19
41 22 18 -6 -30 -38 -66 -43 -68 -74 -10 -121 22 -17 40 -38 40 -45 0 -7 11
-18 25 -24 34 -16 35 -15 35 9 0 12 4 17 11 14 6 -4 8 -14 5 -22 -14 -35 83
26 108 68 31 52 13 98 -62 158 -62 48 -81 49 -133 2z m101 -21 c0 -5 6 -10 14
-10 22 0 56 -49 55 -79 0 -25 -1 -25 -9 -5 -14 36 -75 77 -102 68 -23 -7 -23
-6 -4 15 20 22 46 28 46 11z m-3 -53 c4 -8 16 -16 26 -20 30 -11 32 -37 3 -65
l-26 -27 -42 42 c-41 41 -42 43 -23 63 21 23 50 26 62 7z m-93 -37 c3 -22 15
-49 26 -60 12 -12 15 -20 8 -19 -7 0 -27 17 -44 37 -25 29 -30 42 -23 60 13
34 26 27 33 -18z"/>
<path d="M2131 891 c-12 -8 -13 -12 -1 -26 10 -13 15 -13 21 -3 20 30 8 46
-20 29z"/>
<path d="M840 1023 c-14 -9 -42 -33 -62 -52 -56 -52 -51 -87 25 -168 39 -41
82 -44 120 -9 15 14 42 37 62 52 25 19 35 34 35 55 0 15 -5 31 -10 34 -6 4 -8
10 -6 14 3 4 -12 26 -33 49 -31 34 -45 42 -72 41 -19 0 -45 -7 -59 -16z m101
-76 c20 -18 40 -38 43 -45 6 -13 -15 -42 -29 -42 -3 0 -22 -12 -41 -26 -19
-15 -38 -23 -42 -19 -4 4 -1 10 6 12 6 3 12 11 12 19 0 8 7 14 16 14 8 0 12 5
9 10 -4 6 -2 16 4 23 6 7 6 18 1 26 -6 10 -17 -3 -39 -48 -28 -54 -34 -60 -51
-51 -52 28 -67 101 -27 137 45 41 81 39 138 -10z"/>
<path d="M840 939 c0 -5 -9 -9 -19 -9 -11 0 -23 -5 -27 -11 -7 -13 42 -4 90
15 l30 12 -37 1 c-20 1 -37 -3 -37 -8z"/>
<path d="M812 873 c9 -10 13 -25 10 -33 -5 -13 -3 -13 12 -1 15 13 15 15 0 32
-22 24 -42 25 -22 2z"/>
<path d="M727 986 c-4 -10 -7 -32 -6 -49 1 -31 1 -31 10 7 10 43 7 72 -4 42z"/>
<path d="M2270 951 c0 -29 -5 -62 -11 -74 l-11 -22 22 22 c25 24 32 95 11 116
-8 8 -11 -2 -11 -42z"/>
<path d="M1837 849 c-32 -23 -56 -43 -53 -46 2 -3 26 10 53 28 38 26 44 28 28
9 -11 -12 -39 -31 -62 -42 -23 -10 -43 -26 -45 -36 -4 -16 74 -149 96 -164 23
-16 55 -6 117 35 l65 42 -6 41 c-8 55 -67 136 -108 150 -18 5 -29 13 -26 17
16 15 -4 4 -59 -34z m113 -84 c7 -8 16 -13 20 -10 4 2 4 -14 0 -37 -13 -68
-61 -88 -105 -43 -14 13 -25 33 -25 45 0 47 80 81 110 45z"/>
<path d="M1882 751 c-8 -5 -12 -21 -10 -37 2 -21 9 -30 26 -32 44 -7 67 32 36
62 -17 18 -32 20 -52 7z"/>
<path d="M1022 826 c-23 -25 -42 -49 -42 -54 0 -5 -7 -15 -16 -23 -13 -11 -14
-9 -9 17 5 24 4 26 -5 11 -13 -21 2 -80 29 -111 31 -36 94 -76 120 -76 41 0
130 109 131 159 0 33 -46 90 -86 107 -55 23 -77 18 -122 -30z m79 -38 c36 -43
40 -55 23 -73 -9 -9 -23 -14 -30 -11 -10 4 -14 -4 -14 -30 l0 -36 35 33 c43
41 46 79 9 108 -15 12 -21 21 -15 21 7 0 26 -13 42 -29 16 -16 29 -24 29 -18
0 8 3 8 11 0 14 -14 -51 -109 -82 -118 -31 -10 -56 18 -51 57 l4 33 -17 -23
c-13 -18 -20 -21 -31 -11 -23 19 -16 58 15 90 35 35 47 36 72 7z"/>
<path d="M1036 757 c-34 -44 -34 -72 -1 -32 35 42 48 65 36 65 -6 0 -21 -15
-35 -33z"/>
<path d="M1284 774 c-10 -8 -12 -12 -4 -8 11 5 10 1 -3 -13 -10 -12 -20 -32
-21 -45 -2 -12 -9 -42 -16 -65 -24 -79 3 -112 107 -131 67 -12 98 4 107 54 4
20 12 48 18 63 18 44 18 74 0 95 -11 12 -12 16 -3 11 10 -6 12 -4 7 4 -5 7
-14 10 -22 7 -8 -3 -17 1 -21 9 -3 10 -12 13 -25 9 -13 -4 -18 -2 -14 4 3 5
-5 12 -19 14 -13 3 -22 1 -19 -3 3 -5 -10 -9 -28 -9 -25 0 -29 3 -18 10 8 5
10 10 4 10 -5 0 -19 -7 -30 -16z m111 -74 c4 -7 14 -6 28 2 21 11 21 10 7 -7
-14 -17 -13 -18 3 -12 17 6 23 -3 10 -17 -4 -4 -8 -22 -10 -41 -2 -39 -19 -75
-34 -75 -6 0 -3 10 5 22 25 35 20 83 -10 107 -15 12 -36 21 -48 21 -16 0 -13
-4 14 -18 29 -14 36 -23 38 -53 4 -49 -24 -74 -73 -65 -19 4 -35 10 -35 14 0
14 28 110 34 121 9 14 63 14 71 1z"/>
<path d="M1327 633 c-7 -42 1 -57 26 -47 27 10 34 54 12 71 -28 19 -32 17 -38
-24z"/>
<path d="M1602 769 c-13 -5 -27 -7 -31 -4 -5 2 -18 -6 -31 -20 -20 -21 -22
-33 -21 -107 2 -111 13 -123 116 -123 70 0 77 2 105 30 23 23 31 42 35 80 l4
50 -9 -44 c-15 -71 -19 -71 -18 2 0 55 -4 74 -20 97 -15 20 -18 30 -9 34 6 2
-4 3 -23 0 -27 -3 -31 -2 -15 5 16 8 13 10 -20 10 -22 0 -51 -4 -63 -10z m91
-67 c-2 -6 3 -9 10 -7 8 4 13 -10 15 -46 5 -88 -35 -120 -80 -65 l-18 21 0
-22 c0 -13 -6 -23 -14 -23 -11 0 -15 18 -18 68 -4 76 -3 79 14 64 7 -5 24 -12
38 -14 19 -2 26 -10 28 -30 2 -16 -1 -28 -7 -28 -18 0 -13 -25 8 -44 19 -17
19 -16 18 41 -2 56 -3 59 -37 76 l-35 19 32 -4 c19 -3 29 0 26 5 -3 5 0 7 8 5
8 -3 13 -10 12 -16z m-123 -77 c-8 -54 -10 -56 -16 -11 -3 25 13 74 20 64 2
-1 0 -25 -4 -53z"/>
<path d="M0 190 c0 -17 7 -20 51 -20 45 0 50 -2 44 -17 -20 -45 -17 -72 9 -98
24 -23 32 -26 99 -24 42 1 83 -4 96 -11 52 -27 97 33 80 107 -3 18 -4 34 -1
37 3 4 497 6 1098 6 l1092 0 -3 -32 c-2 -18 -6 -40 -10 -49 -14 -36 21 -49
128 -50 219 -2 227 1 219 81 l-5 50 52 0 c44 0 51 3 51 20 0 20 -7 20 -1500
20 -1493 0 -1500 0 -1500 -20z m180 -66 c0 -31 2 -34 15 -20 18 17 20 30 4 20
-7 -4 -10 -1 -7 7 3 10 22 14 64 14 l59 0 6 -35 6 -35 2 38 c2 56 21 45 21
-13 0 -36 -4 -52 -15 -57 -22 -8 -33 6 -15 17 10 7 11 10 3 10 -7 0 -14 12
-14 28 l-2 27 -4 -27 c-3 -20 -10 -28 -24 -28 -14 0 -19 8 -21 33 l-1 32 -4
-32 -4 -32 -64 0 c-67 0 -90 13 -62 34 22 16 22 26 0 18 -16 -6 -16 -5 -4 10
19 24 35 16 42 -19 6 -24 6 -22 4 9 -2 20 1 37 6 37 5 0 9 -16 9 -36z m2466
16 c33 0 46 -13 22 -22 -26 -10 -88 4 -88 19 0 10 6 13 16 9 9 -3 31 -6 50 -6z
m84 0 c0 -5 5 -10 11 -10 5 0 7 5 4 10 -4 6 22 10 69 10 61 0 76 -3 76 -15 0
-19 -70 -21 -89 -2 -11 10 -13 10 -7 0 5 -10 -7 -13 -48 -13 -43 0 -56 3 -56
15 0 8 9 15 20 15 11 0 20 -4 20 -10z m80 -51 c64 0 80 -3 80 -15 0 -11 -11
-13 -50 -11 -27 1 -50 -1 -50 -6 0 -6 -5 -5 -12 0 -7 5 -48 9 -90 8 -49 -1
-78 3 -78 9 0 6 -4 5 -9 -3 -5 -7 -14 -10 -20 -7 -24 15 -8 26 39 26 33 0 50
-4 50 -12 0 -9 3 -10 8 -2 8 13 34 23 45 17 4 -2 43 -4 87 -4z"/>
</g>
</svg>
